<?xml version="1.0" standalone="no"?>
<!DOCTYPE svg PUBLIC "-//W3C//DTD SVG 20010904//EN"
 "http://www.w3.org/TR/2001/REC-SVG-20010904/DTD/svg10.dtd">
<svg version="1.0" xmlns="http://www.w3.org/2000/svg"
 width="512.000000pt" height="512.000000pt" viewBox="0 0 512.000000 512.000000"
 preserveAspectRatio="xMidYMid meet">
<metadata>
Created by potrace 1.14, written by Peter Selinger 2001-2017
</metadata>
<g transform="translate(0.000000,512.000000) scale(0.100000,-0.100000)"
fill="#000000" stroke="none">
<path d="M460 2560 l0 -770 80 0 80 0 2 601 3 602 296 -504 296 -504 40 -3
c35 -3 44 1 60 25 11 15 145 244 299 507 l279 479 3 -601 2 -602 85 0 85 0 0
770 0 770 -73 0 -74 0 -328 -565 c-180 -311 -330 -563 -334 -560 -3 4 -152
257 -332 563 l-326 557 -72 3 -71 3 0 -771z"/>
<path d="M2380 3323 c0 -4 116 -351 257 -770 l258 -763 90 0 91 0 218 633
c120 347 221 637 225 644 3 6 105 -277 227 -630 l220 -642 93 0 94 0 258 765
c142 421 259 766 259 768 0 1 -37 2 -83 2 l-83 0 -218 -647 c-121 -357 -222
-652 -226 -656 -4 -4 -107 287 -230 648 l-224 656 -79 -3 -80 -3 -223 -645
c-123 -354 -225 -648 -227 -654 -2 -5 -102 285 -223 645 l-221 654 -86 3 c-48
1 -87 -1 -87 -5z"/>
</g>
</svg>
